<?xml version="1.0" encoding="UTF-8"?><svg id="Layer_1" xmlns="http://www.w3.org/2000/svg" viewBox="0 0 1080 1080"><defs><style>.cls-1{fill:#fff;}</style></defs><path class="cls-1" d="M331.14,633.23l-104.8,23.05c-11.59,2.55-22.57-6.28-22.57-18.14v-196.26c0-11.87,10.98-20.69,22.57-18.14l104.8,23.05c8.52,1.87,14.59,9.42,14.59,18.14v150.17c0,8.72-6.07,16.27-14.59,18.14ZM584.85,723.06v-366.13c0-7.81-4.89-14.79-12.23-17.46l-149.92-54.49c-12.12-4.4-24.92,4.57-24.92,17.46v475.11c0,12.89,12.81,21.86,24.92,17.46l149.92-54.49c7.34-2.67,12.23-9.65,12.23-17.46ZM876.23,1026.87V53.13c0-14.34-15.56-23.28-27.95-16.04l-197.52,115.4c-5.7,3.33-9.21,9.44-9.21,16.04v742.94c0,6.6,3.5,12.71,9.21,16.04l197.52,115.4c12.38,7.24,27.95-1.7,27.95-16.04Z"/></svg>